<mxfile host="65bd71144e">
    <diagram id="-MHGoC4FEf-LlO6rwxvQ" name="Concept_1">
        <mxGraphModel dx="1573" dy="766" grid="1" gridSize="10" guides="1" tooltips="1" connect="1" arrows="1" fold="1" page="0" pageScale="1" pageWidth="850" pageHeight="1100" background="light-dark(#FFFFFF,#FFFFFF)" math="1" shadow="0">
            <root>
                <mxCell id="0"/>
                <mxCell id="1" parent="0"/>
                <mxCell id="18" value="" style="edgeStyle=elbowEdgeStyle;strokeWidth=5;strokeColor=light-dark(#000000,#1437F5);labelBackgroundColor=none;fontFamily=Calibri;" parent="1" source="12" target="13" edge="1">
                    <mxGeometry relative="1" as="geometry"/>
                </mxCell>
                <mxCell id="12" value="User" style="sketch=0;outlineConnect=0;fontColor=light-dark(#232F3E,#1437F5);gradientColor=none;fillColor=light-dark(#232F3D,#1437F5);strokeColor=none;dashed=0;verticalLabelPosition=bottom;verticalAlign=top;align=center;fontSize=12;fontStyle=0;aspect=fixed;pointerEvents=1;shape=mxgraph.aws4.user;fontFamily=Calibri;" parent="1" vertex="1">
                    <mxGeometry x="-200" y="520" width="78" height="78" as="geometry"/>
                </mxCell>
                <mxCell id="15" value="" style="edgeStyle=none;html=1;fontFamily=Calibri;" parent="1" source="13" edge="1">
                    <mxGeometry relative="1" as="geometry">
                        <mxPoint x="39" y="598" as="targetPoint"/>
                    </mxGeometry>
                </mxCell>
                <mxCell id="13" value="Admin" style="sketch=0;outlineConnect=0;fontColor=light-dark(#232F3E,#00FFFF);gradientColor=none;fillColor=light-dark(#232F3D,#00FFFF);strokeColor=none;dashed=0;verticalLabelPosition=bottom;verticalAlign=top;align=center;fontSize=12;fontStyle=0;aspect=fixed;pointerEvents=1;shape=mxgraph.aws4.user;fontFamily=Calibri;" parent="1" vertex="1">
                    <mxGeometry y="441" width="78" height="78" as="geometry"/>
                </mxCell>
                <mxCell id="17" value="" style="edgeStyle=none;html=1;fontFamily=Calibri;" parent="1" edge="1">
                    <mxGeometry relative="1" as="geometry">
                        <mxPoint x="39" y="676.0000000000001" as="sourcePoint"/>
                        <mxPoint x="39" y="756" as="targetPoint"/>
                    </mxGeometry>
                </mxCell>
                <mxCell id="23" value="" style="edgeStyle=none;html=1;fontFamily=Calibri;" parent="1" source="19" edge="1">
                    <mxGeometry relative="1" as="geometry">
                        <mxPoint x="39" y="798" as="targetPoint"/>
                    </mxGeometry>
                </mxCell>
                <mxCell id="30" value="" style="edgeStyle=none;html=1;fontFamily=Calibri;" edge="1" parent="1" source="19" target="26">
                    <mxGeometry relative="1" as="geometry"/>
                </mxCell>
                <mxCell id="19" value="Volunteer" style="sketch=0;outlineConnect=0;fontColor=light-dark(#232F3E,#006696);gradientColor=none;fillColor=light-dark(#006696,#006696);strokeColor=none;dashed=0;verticalLabelPosition=bottom;verticalAlign=top;align=center;fontSize=12;fontStyle=0;aspect=fixed;pointerEvents=1;shape=mxgraph.aws4.user;fontFamily=Calibri;" parent="1" vertex="1">
                    <mxGeometry y="601" width="78" height="78" as="geometry"/>
                </mxCell>
                <mxCell id="21" value="" style="edgeStyle=elbowEdgeStyle;strokeWidth=5;strokeColor=light-dark(#000000,#1437F5);labelBackgroundColor=none;fontFamily=Calibri;" parent="1" source="12" target="19" edge="1">
                    <mxGeometry relative="1" as="geometry">
                        <mxPoint x="-76" y="569" as="sourcePoint"/>
                        <mxPoint x="14" y="449" as="targetPoint"/>
                    </mxGeometry>
                </mxCell>
                <mxCell id="24" value="Create events and tasks&lt;span style=&quot;font-size: 0px; text-align: start; text-wrap-mode: nowrap;&quot;&gt;%3CmxGraphModel%3E%3Croot%3E%3CmxCell%20id%3D%220%22%2F%3E%3CmxCell%20id%3D%221%22%20parent%3D%220%22%2F%3E%3CmxCell%20id%3D%222%22%20value%3D%22Create%20events%22%20style%3D%22ellipse%3BwhiteSpace%3Dwrap%3Bhtml%3D1%3BstrokeColor%3Dlight-dark(%23000000%2C%23000000)%3BfillColor%3Dlight-dark(%23FFFFFF%2C%23FFFFFF)%3BfontFamily%3DCalibri%3BfontColor%3Dlight-dark(%23000000%2C%23000000)%3B%22%20vertex%3D%221%22%20parent%3D%221%22%3E%3CmxGeometry%20x%3D%22160%22%20y%3D%22400%22%20width%3D%22160%22%20height%3D%2280%22%20as%3D%22geometry%22%2F%3E%3C%2FmxCell%3E%3C%2Froot%3E%3C%2FmxGraphModel%3E&lt;/span&gt;" style="ellipse;whiteSpace=wrap;html=1;strokeColor=light-dark(#000000,#000000);fillColor=light-dark(#FFFFFF,#FFFFFF);fontFamily=Calibri;fontColor=light-dark(#000000,#000000);" parent="1" vertex="1">
                    <mxGeometry x="160" y="440" width="160" height="80" as="geometry"/>
                </mxCell>
                <mxCell id="26" value="Accept events and tasks&lt;span style=&quot;font-size: 0px; text-align: start; text-wrap-mode: nowrap;&quot;&gt;%3CmxGraphModel%3E%3Croot%3E%3CmxCell%20id%3D%220%22%2F%3E%3CmxCell%20id%3D%221%22%20parent%3D%220%22%2F%3E%3CmxCell%20id%3D%222%22%20value%3D%22Create%20events%22%20style%3D%22ellipse%3BwhiteSpace%3Dwrap%3Bhtml%3D1%3BstrokeColor%3Dlight-dark(%23000000%2C%23000000)%3BfillColor%3Dlight-dark(%23FFFFFF%2C%23FFFFFF)%3BfontFamily%3DCalibri%3BfontColor%3Dlight-dark(%23000000%2C%23000000)%3B%22%20vertex%3D%221%22%20parent%3D%221%22%3E%3CmxGeometry%20x%3D%22160%22%20y%3D%22400%22%20width%3D%22160%22%20height%3D%2280%22%20as%3D%22geometry%22%2F%3E%3C%2FmxCell%3E%3C%2Froot%3E%3C%2FmxGraphModel%3E&lt;/span&gt;" style="ellipse;whiteSpace=wrap;html=1;strokeColor=light-dark(#000000,#000000);fillColor=light-dark(#FFFFFF,#FFFFFF);fontFamily=Calibri;fontColor=light-dark(#000000,#000000);" parent="1" vertex="1">
                    <mxGeometry x="160" y="600" width="160" height="80" as="geometry"/>
                </mxCell>
                <mxCell id="27" value="" style="edgeStyle=elbowEdgeStyle;strokeWidth=5;strokeColor=light-dark(#000000, #75fbfd);labelBackgroundColor=none;fontFamily=Calibri;entryX=0;entryY=0.5;entryDx=0;entryDy=0;" edge="1" parent="1" source="13" target="24">
                    <mxGeometry relative="1" as="geometry">
                        <mxPoint x="90" y="450" as="sourcePoint"/>
                        <mxPoint x="220" y="330" as="targetPoint"/>
                    </mxGeometry>
                </mxCell>
                <mxCell id="28" value="" style="edgeStyle=elbowEdgeStyle;strokeWidth=5;strokeColor=light-dark(#000000, #75fbfd);labelBackgroundColor=none;fontFamily=Calibri;entryX=-0.002;entryY=0.357;entryDx=0;entryDy=0;entryPerimeter=0;" edge="1" parent="1" source="13" target="26">
                    <mxGeometry relative="1" as="geometry">
                        <mxPoint x="100" y="510" as="sourcePoint"/>
                        <mxPoint x="186" y="510" as="targetPoint"/>
                    </mxGeometry>
                </mxCell>
                <mxCell id="29" value="" style="edgeStyle=elbowEdgeStyle;strokeWidth=5;strokeColor=light-dark(#000000, #2a6492);labelBackgroundColor=none;fontFamily=Calibri;entryX=0;entryY=0.5;entryDx=0;entryDy=0;" edge="1" parent="1" source="19" target="26">
                    <mxGeometry relative="1" as="geometry">
                        <mxPoint x="100" y="740" as="sourcePoint"/>
                        <mxPoint x="186" y="740" as="targetPoint"/>
                    </mxGeometry>
                </mxCell>
                <mxCell id="31" value="Use-Case Diagram (WIP)" style="text;html=1;align=left;verticalAlign=middle;resizable=0;points=[];autosize=1;strokeColor=none;fillColor=none;fontFamily=Calibri;fontColor=light-dark(#000000,#000000);fontSize=48;fontStyle=1" vertex="1" parent="1">
                    <mxGeometry x="-240" y="360" width="500" height="70" as="geometry"/>
                </mxCell>
            </root>
        </mxGraphModel>
    </diagram>
</mxfile>